<mxfile host="app.diagrams.net" agent="Mozilla/5.0 (Windows NT 10.0; Win64; x64) AppleWebKit/537.36 (KHTML, like Gecko) Chrome/137.0.0.0 Safari/537.36 Edg/137.0.0.0" version="27.1.6">
  <diagram name="Page-1" id="JtY7PFCuWjGYH7eX_PQp">
    <mxGraphModel dx="1371" dy="1896" grid="1" gridSize="10" guides="1" tooltips="1" connect="1" arrows="1" fold="1" page="1" pageScale="1" pageWidth="850" pageHeight="1100" math="0" shadow="0">
      <root>
        <mxCell id="0" />
        <mxCell id="1" parent="0" />
        <mxCell id="Z1Lz8Go7HBzAx8jmQ4Jy-24" style="edgeStyle=orthogonalEdgeStyle;rounded=0;orthogonalLoop=1;jettySize=auto;html=1;exitX=1;exitY=0.5;exitDx=0;exitDy=0;entryX=0;entryY=0.5;entryDx=0;entryDy=0;" parent="1" source="D84TmE_rMbiOWt82x0Ym-1" target="Z1Lz8Go7HBzAx8jmQ4Jy-8" edge="1">
          <mxGeometry relative="1" as="geometry" />
        </mxCell>
        <mxCell id="D84TmE_rMbiOWt82x0Ym-1" value="Relay NTLMv2-Hash to Certificate Authority and capture certificate for unprivileged user &quot;Nina&quot; (ESC8)" style="rounded=0;whiteSpace=wrap;html=1;fillColor=none;" parent="1" vertex="1">
          <mxGeometry x="440" y="-690" width="130" height="80" as="geometry" />
        </mxCell>
        <mxCell id="D84TmE_rMbiOWt82x0Ym-31" style="edgeStyle=orthogonalEdgeStyle;rounded=0;orthogonalLoop=1;jettySize=auto;html=1;exitX=1;exitY=0.5;exitDx=0;exitDy=0;entryX=0;entryY=0.5;entryDx=0;entryDy=0;" parent="1" source="D84TmE_rMbiOWt82x0Ym-25" target="D84TmE_rMbiOWt82x0Ym-1" edge="1">
          <mxGeometry relative="1" as="geometry" />
        </mxCell>
        <mxCell id="D84TmE_rMbiOWt82x0Ym-54" style="rounded=0;orthogonalLoop=1;jettySize=auto;html=1;exitX=1;exitY=0.5;exitDx=0;exitDy=0;entryX=0;entryY=0.5;entryDx=0;entryDy=0;" parent="1" source="D84TmE_rMbiOWt82x0Ym-25" target="D84TmE_rMbiOWt82x0Ym-51" edge="1">
          <mxGeometry relative="1" as="geometry" />
        </mxCell>
        <mxCell id="D84TmE_rMbiOWt82x0Ym-25" value="&lt;div&gt;Respond to&lt;/div&gt;&lt;div&gt;SMB-traffic from &quot;Nina&quot;&lt;/div&gt;" style="rounded=0;whiteSpace=wrap;html=1;fillColor=none;" parent="1" vertex="1">
          <mxGeometry x="230" y="-690" width="130" height="80" as="geometry" />
        </mxCell>
        <mxCell id="D84TmE_rMbiOWt82x0Ym-51" value="Capture NTLMv2-Hash, cracking attempt fails due to strong password" style="rounded=0;whiteSpace=wrap;html=1;fillColor=none;" parent="1" vertex="1">
          <mxGeometry x="440" y="-850" width="130" height="80" as="geometry" />
        </mxCell>
        <mxCell id="D84TmE_rMbiOWt82x0Ym-62" style="rounded=0;orthogonalLoop=1;jettySize=auto;html=1;exitX=1;exitY=0.5;exitDx=0;exitDy=0;entryX=0;entryY=0.5;entryDx=0;entryDy=0;" parent="1" source="D84TmE_rMbiOWt82x0Ym-61" target="D84TmE_rMbiOWt82x0Ym-25" edge="1">
          <mxGeometry relative="1" as="geometry" />
        </mxCell>
        <mxCell id="Z1Lz8Go7HBzAx8jmQ4Jy-2" style="rounded=0;orthogonalLoop=1;jettySize=auto;html=1;exitX=1;exitY=0.5;exitDx=0;exitDy=0;entryX=0;entryY=0.5;entryDx=0;entryDy=0;" parent="1" source="D84TmE_rMbiOWt82x0Ym-61" target="Z1Lz8Go7HBzAx8jmQ4Jy-1" edge="1">
          <mxGeometry relative="1" as="geometry" />
        </mxCell>
        <mxCell id="D84TmE_rMbiOWt82x0Ym-61" value="Starting point: hacker has full access to client network via KALI Linux" style="rounded=0;whiteSpace=wrap;html=1;fillColor=#a20025;fontColor=#ffffff;strokeColor=#6F0000;" parent="1" vertex="1">
          <mxGeometry x="20" y="-610" width="130" height="80" as="geometry" />
        </mxCell>
        <mxCell id="D84TmE_rMbiOWt82x0Ym-65" value="... Detection via Wazuh/Crowdstrike" style="image;aspect=fixed;html=1;points=[];align=left;fontSize=12;image=img/lib/azure2/ai_machine_learning/Anomaly_Detector.svg;labelPosition=right;verticalLabelPosition=middle;verticalAlign=middle;" parent="1" vertex="1">
          <mxGeometry x="60" y="-1060" width="20" height="20" as="geometry" />
        </mxCell>
        <mxCell id="D84TmE_rMbiOWt82x0Ym-68" value="" style="image;aspect=fixed;html=1;points=[];align=center;fontSize=12;image=img/lib/azure2/ai_machine_learning/Anomaly_Detector.svg;" parent="1" vertex="1">
          <mxGeometry x="550" y="-630" width="20" height="20" as="geometry" />
        </mxCell>
        <mxCell id="Z1Lz8Go7HBzAx8jmQ4Jy-4" style="edgeStyle=orthogonalEdgeStyle;rounded=0;orthogonalLoop=1;jettySize=auto;html=1;exitX=1;exitY=0.5;exitDx=0;exitDy=0;" parent="1" source="Z1Lz8Go7HBzAx8jmQ4Jy-1" target="Z1Lz8Go7HBzAx8jmQ4Jy-3" edge="1">
          <mxGeometry relative="1" as="geometry" />
        </mxCell>
        <mxCell id="mSC2MxoGp9LhpinpzcPq-2" style="rounded=0;orthogonalLoop=1;jettySize=auto;html=1;exitX=1;exitY=0.5;exitDx=0;exitDy=0;entryX=0;entryY=0.5;entryDx=0;entryDy=0;" parent="1" source="Z1Lz8Go7HBzAx8jmQ4Jy-1" target="mSC2MxoGp9LhpinpzcPq-1" edge="1">
          <mxGeometry relative="1" as="geometry" />
        </mxCell>
        <mxCell id="Z1Lz8Go7HBzAx8jmQ4Jy-25" style="edgeStyle=orthogonalEdgeStyle;rounded=0;orthogonalLoop=1;jettySize=auto;html=1;exitX=1;exitY=0.5;exitDx=0;exitDy=0;entryX=0;entryY=0.5;entryDx=0;entryDy=0;" parent="1" source="Z1Lz8Go7HBzAx8jmQ4Jy-3" target="Z1Lz8Go7HBzAx8jmQ4Jy-19" edge="1">
          <mxGeometry relative="1" as="geometry" />
        </mxCell>
        <mxCell id="Z1Lz8Go7HBzAx8jmQ4Jy-3" value="&quot;Alice&quot;s credentials can be brute forced (weak password)" style="rounded=0;whiteSpace=wrap;html=1;fillColor=none;" parent="1" vertex="1">
          <mxGeometry x="440" y="-530" width="130" height="80" as="geometry" />
        </mxCell>
        <mxCell id="Z1Lz8Go7HBzAx8jmQ4Jy-7" value="" style="image;aspect=fixed;html=1;points=[];align=center;fontSize=12;image=img/lib/azure2/ai_machine_learning/Anomaly_Detector.svg;" parent="1" vertex="1">
          <mxGeometry x="550" y="-470" width="20" height="20" as="geometry" />
        </mxCell>
        <mxCell id="mSC2MxoGp9LhpinpzcPq-48" style="rounded=0;orthogonalLoop=1;jettySize=auto;html=1;exitX=1;exitY=0.5;exitDx=0;exitDy=0;entryX=0;entryY=0.5;entryDx=0;entryDy=0;" parent="1" source="Z1Lz8Go7HBzAx8jmQ4Jy-8" target="Z1Lz8Go7HBzAx8jmQ4Jy-36" edge="1">
          <mxGeometry relative="1" as="geometry" />
        </mxCell>
        <mxCell id="mSC2MxoGp9LhpinpzcPq-51" style="rounded=0;orthogonalLoop=1;jettySize=auto;html=1;exitX=1;exitY=0.5;exitDx=0;exitDy=0;entryX=0;entryY=0.5;entryDx=0;entryDy=0;" parent="1" source="Z1Lz8Go7HBzAx8jmQ4Jy-8" target="Z1Lz8Go7HBzAx8jmQ4Jy-42" edge="1">
          <mxGeometry relative="1" as="geometry" />
        </mxCell>
        <mxCell id="Z1Lz8Go7HBzAx8jmQ4Jy-8" value="&lt;div&gt;Access to low priv domain user account&lt;/div&gt;&lt;div&gt;&quot;Nina&quot;&lt;br&gt;&lt;/div&gt;" style="rounded=0;whiteSpace=wrap;html=1;fillColor=none;" parent="1" vertex="1">
          <mxGeometry x="650" y="-690" width="130" height="80" as="geometry" />
        </mxCell>
        <mxCell id="Z1Lz8Go7HBzAx8jmQ4Jy-11" value="" style="endArrow=none;html=1;rounded=0;" parent="1" target="Z1Lz8Go7HBzAx8jmQ4Jy-71" edge="1">
          <mxGeometry width="50" height="50" relative="1" as="geometry">
            <mxPoint x="84.84" y="-630" as="sourcePoint" />
            <mxPoint x="84.44" y="-880" as="targetPoint" />
          </mxGeometry>
        </mxCell>
        <mxCell id="mSC2MxoGp9LhpinpzcPq-49" style="rounded=0;orthogonalLoop=1;jettySize=auto;html=1;exitX=1;exitY=0.5;exitDx=0;exitDy=0;entryX=0;entryY=0.5;entryDx=0;entryDy=0;" parent="1" source="Z1Lz8Go7HBzAx8jmQ4Jy-19" target="Z1Lz8Go7HBzAx8jmQ4Jy-36" edge="1">
          <mxGeometry relative="1" as="geometry" />
        </mxCell>
        <mxCell id="mSC2MxoGp9LhpinpzcPq-53" style="rounded=0;orthogonalLoop=1;jettySize=auto;html=1;exitX=1;exitY=0.5;exitDx=0;exitDy=0;entryX=0;entryY=0.5;entryDx=0;entryDy=0;" parent="1" source="Z1Lz8Go7HBzAx8jmQ4Jy-19" target="Z1Lz8Go7HBzAx8jmQ4Jy-42" edge="1">
          <mxGeometry relative="1" as="geometry" />
        </mxCell>
        <mxCell id="Z1Lz8Go7HBzAx8jmQ4Jy-19" value="&lt;div&gt;Access to low priv domain user account&lt;/div&gt;&lt;div&gt;&quot;Alice&quot;&lt;br&gt;&lt;/div&gt;" style="rounded=0;whiteSpace=wrap;html=1;fillColor=none;" parent="1" vertex="1">
          <mxGeometry x="650" y="-530" width="130" height="80" as="geometry" />
        </mxCell>
        <mxCell id="mSC2MxoGp9LhpinpzcPq-30" style="edgeStyle=orthogonalEdgeStyle;rounded=0;orthogonalLoop=1;jettySize=auto;html=1;exitX=1;exitY=0.5;exitDx=0;exitDy=0;entryX=0;entryY=0.5;entryDx=0;entryDy=0;" parent="1" source="Z1Lz8Go7HBzAx8jmQ4Jy-26" target="mSC2MxoGp9LhpinpzcPq-29" edge="1">
          <mxGeometry relative="1" as="geometry" />
        </mxCell>
        <mxCell id="Z1Lz8Go7HBzAx8jmQ4Jy-26" value="&lt;div&gt;&quot;Martin&quot; has GenericAll access to CORP-DC, RBCD to add shadow credentials to any domain admin&lt;br&gt;&lt;/div&gt;" style="rounded=0;whiteSpace=wrap;html=1;fillColor=none;" parent="1" vertex="1">
          <mxGeometry x="860" y="-370" width="130" height="80" as="geometry" />
        </mxCell>
        <mxCell id="mSC2MxoGp9LhpinpzcPq-14" style="edgeStyle=orthogonalEdgeStyle;rounded=0;orthogonalLoop=1;jettySize=auto;html=1;exitX=1;exitY=0.5;exitDx=0;exitDy=0;entryX=0;entryY=0.5;entryDx=0;entryDy=0;" parent="1" source="Z1Lz8Go7HBzAx8jmQ4Jy-36" target="mSC2MxoGp9LhpinpzcPq-10" edge="1">
          <mxGeometry relative="1" as="geometry" />
        </mxCell>
        <mxCell id="Z1Lz8Go7HBzAx8jmQ4Jy-36" value="Kerberoasting, crack hash to compromise domain user &quot;Frank&quot;" style="rounded=0;whiteSpace=wrap;html=1;fillColor=none;" parent="1" vertex="1">
          <mxGeometry x="860" y="-530" width="130" height="80" as="geometry" />
        </mxCell>
        <mxCell id="Z1Lz8Go7HBzAx8jmQ4Jy-37" value="" style="image;aspect=fixed;html=1;points=[];align=center;fontSize=12;image=img/lib/azure2/ai_machine_learning/Anomaly_Detector.svg;" parent="1" vertex="1">
          <mxGeometry x="970" y="-470" width="20" height="20" as="geometry" />
        </mxCell>
        <mxCell id="Z1Lz8Go7HBzAx8jmQ4Jy-42" value="&lt;div&gt;ESC1 and ESC8,&lt;/div&gt;&lt;div&gt;exploitation fails due to hardening&lt;/div&gt;" style="rounded=0;whiteSpace=wrap;html=1;fillColor=#a20025;fontColor=#ffffff;strokeColor=#6F0000;" parent="1" vertex="1">
          <mxGeometry x="860" y="-690" width="130" height="80" as="geometry" />
        </mxCell>
        <mxCell id="Z1Lz8Go7HBzAx8jmQ4Jy-45" value="" style="image;aspect=fixed;html=1;points=[];align=center;fontSize=12;image=img/lib/azure2/ai_machine_learning/Anomaly_Detector.svg;" parent="1" vertex="1">
          <mxGeometry x="970" y="-630" width="20" height="20" as="geometry" />
        </mxCell>
        <mxCell id="Z1Lz8Go7HBzAx8jmQ4Jy-71" value="Initial Access" style="text;html=1;align=center;verticalAlign=middle;resizable=0;points=[];autosize=1;strokeColor=none;fillColor=none;" parent="1" vertex="1">
          <mxGeometry x="35" y="-930" width="100" height="30" as="geometry" />
        </mxCell>
        <mxCell id="Z1Lz8Go7HBzAx8jmQ4Jy-72" value="&lt;div&gt;Access to low priv&lt;/div&gt;&lt;div&gt;domain account&lt;/div&gt;" style="text;html=1;align=center;verticalAlign=middle;resizable=0;points=[];autosize=1;strokeColor=none;fillColor=none;" parent="1" vertex="1">
          <mxGeometry x="655" y="-935" width="120" height="40" as="geometry" />
        </mxCell>
        <mxCell id="Z1Lz8Go7HBzAx8jmQ4Jy-74" value="" style="endArrow=none;html=1;rounded=0;" parent="1" target="Z1Lz8Go7HBzAx8jmQ4Jy-72" edge="1">
          <mxGeometry width="50" height="50" relative="1" as="geometry">
            <mxPoint x="715" y="-720" as="sourcePoint" />
            <mxPoint x="714.6" y="-880" as="targetPoint" />
          </mxGeometry>
        </mxCell>
        <mxCell id="mSC2MxoGp9LhpinpzcPq-9" style="edgeStyle=orthogonalEdgeStyle;rounded=0;orthogonalLoop=1;jettySize=auto;html=1;exitX=1;exitY=0.5;exitDx=0;exitDy=0;" parent="1" source="mSC2MxoGp9LhpinpzcPq-1" target="mSC2MxoGp9LhpinpzcPq-8" edge="1">
          <mxGeometry relative="1" as="geometry" />
        </mxCell>
        <mxCell id="mSC2MxoGp9LhpinpzcPq-1" value="&quot;Martin&quot; does not require Kerberos pre-authentication (AS-REP roasting)" style="rounded=0;whiteSpace=wrap;html=1;fillColor=#a20025;fontColor=#ffffff;strokeColor=#6F0000;" parent="1" vertex="1">
          <mxGeometry x="440" y="-370" width="130" height="80" as="geometry" />
        </mxCell>
        <mxCell id="mSC2MxoGp9LhpinpzcPq-6" value="... TODO" style="shape=mxgraph.mockup.markup.redX;fillColor=#ff0000;html=1;shadow=0;strokeColor=none;labelPosition=right;verticalLabelPosition=middle;align=left;verticalAlign=middle;" parent="1" vertex="1">
          <mxGeometry x="60" y="-970" width="20" height="20" as="geometry" />
        </mxCell>
        <mxCell id="mSC2MxoGp9LhpinpzcPq-50" style="rounded=0;orthogonalLoop=1;jettySize=auto;html=1;exitX=1;exitY=0.5;exitDx=0;exitDy=0;entryX=0;entryY=0.5;entryDx=0;entryDy=0;" parent="1" source="mSC2MxoGp9LhpinpzcPq-8" target="Z1Lz8Go7HBzAx8jmQ4Jy-36" edge="1">
          <mxGeometry relative="1" as="geometry" />
        </mxCell>
        <mxCell id="mSC2MxoGp9LhpinpzcPq-54" style="rounded=0;orthogonalLoop=1;jettySize=auto;html=1;exitX=1;exitY=0.5;exitDx=0;exitDy=0;entryX=0;entryY=0.5;entryDx=0;entryDy=0;" parent="1" source="mSC2MxoGp9LhpinpzcPq-8" target="Z1Lz8Go7HBzAx8jmQ4Jy-42" edge="1">
          <mxGeometry relative="1" as="geometry" />
        </mxCell>
        <mxCell id="mSC2MxoGp9LhpinpzcPq-64" style="rounded=0;orthogonalLoop=1;jettySize=auto;html=1;exitX=1;exitY=0.5;exitDx=0;exitDy=0;entryX=0;entryY=0.5;entryDx=0;entryDy=0;" parent="1" source="mSC2MxoGp9LhpinpzcPq-8" target="Z1Lz8Go7HBzAx8jmQ4Jy-26" edge="1">
          <mxGeometry relative="1" as="geometry" />
        </mxCell>
        <mxCell id="mSC2MxoGp9LhpinpzcPq-70" style="edgeStyle=orthogonalEdgeStyle;rounded=0;orthogonalLoop=1;jettySize=auto;html=1;exitX=0.5;exitY=1;exitDx=0;exitDy=0;entryX=0.5;entryY=0;entryDx=0;entryDy=0;dashed=1;" parent="1" source="mSC2MxoGp9LhpinpzcPq-8" target="mSC2MxoGp9LhpinpzcPq-67" edge="1">
          <mxGeometry relative="1" as="geometry" />
        </mxCell>
        <mxCell id="mSC2MxoGp9LhpinpzcPq-139" style="edgeStyle=orthogonalEdgeStyle;rounded=0;orthogonalLoop=1;jettySize=auto;html=1;exitX=1;exitY=0.5;exitDx=0;exitDy=0;entryX=0;entryY=0.5;entryDx=0;entryDy=0;" parent="1" source="mSC2MxoGp9LhpinpzcPq-10" target="mSC2MxoGp9LhpinpzcPq-23" edge="1">
          <mxGeometry relative="1" as="geometry" />
        </mxCell>
        <mxCell id="mSC2MxoGp9LhpinpzcPq-10" value="Spray &quot;Frank&quot;s password to compromise domain admin &quot;Helpdesk&quot;" style="rounded=0;whiteSpace=wrap;html=1;fillColor=none;" parent="1" vertex="1">
          <mxGeometry x="1070" y="-530" width="130" height="80" as="geometry" />
        </mxCell>
        <mxCell id="mSC2MxoGp9LhpinpzcPq-19" value="" style="image;aspect=fixed;html=1;points=[];align=center;fontSize=12;image=img/lib/azure2/ai_machine_learning/Anomaly_Detector.svg;" parent="1" vertex="1">
          <mxGeometry x="550" y="-310" width="20" height="20" as="geometry" />
        </mxCell>
        <mxCell id="mSC2MxoGp9LhpinpzcPq-78" style="rounded=0;orthogonalLoop=1;jettySize=auto;html=1;exitX=1;exitY=0.5;exitDx=0;exitDy=0;entryX=0;entryY=0.5;entryDx=0;entryDy=0;" parent="1" source="mSC2MxoGp9LhpinpzcPq-23" target="mSC2MxoGp9LhpinpzcPq-74" edge="1">
          <mxGeometry relative="1" as="geometry" />
        </mxCell>
        <mxCell id="mSC2MxoGp9LhpinpzcPq-84" style="rounded=0;orthogonalLoop=1;jettySize=auto;html=1;exitX=1;exitY=0.5;exitDx=0;exitDy=0;entryX=0;entryY=0.5;entryDx=0;entryDy=0;" parent="1" source="mSC2MxoGp9LhpinpzcPq-23" target="mSC2MxoGp9LhpinpzcPq-82" edge="1">
          <mxGeometry relative="1" as="geometry" />
        </mxCell>
        <mxCell id="hMp5thGQvHkygzWlozYT-9" style="rounded=0;orthogonalLoop=1;jettySize=auto;html=1;exitX=1;exitY=0.5;exitDx=0;exitDy=0;entryX=0;entryY=0.5;entryDx=0;entryDy=0;" parent="1" source="mSC2MxoGp9LhpinpzcPq-23" target="hMp5thGQvHkygzWlozYT-6" edge="1">
          <mxGeometry relative="1" as="geometry" />
        </mxCell>
        <mxCell id="hMp5thGQvHkygzWlozYT-17" style="edgeStyle=orthogonalEdgeStyle;rounded=0;orthogonalLoop=1;jettySize=auto;html=1;exitX=0.75;exitY=0;exitDx=0;exitDy=0;entryX=0;entryY=0.5;entryDx=0;entryDy=0;dashed=1;" parent="1" source="mSC2MxoGp9LhpinpzcPq-23" target="hMp5thGQvHkygzWlozYT-15" edge="1">
          <mxGeometry relative="1" as="geometry" />
        </mxCell>
        <mxCell id="mSC2MxoGp9LhpinpzcPq-23" value="Access to domain admin &quot;Helpdesk&quot;" style="rounded=0;whiteSpace=wrap;html=1;fillColor=none;" parent="1" vertex="1">
          <mxGeometry x="1280" y="-530" width="130" height="80" as="geometry" />
        </mxCell>
        <mxCell id="mSC2MxoGp9LhpinpzcPq-81" style="rounded=0;orthogonalLoop=1;jettySize=auto;html=1;exitX=1;exitY=0.5;exitDx=0;exitDy=0;entryX=0;entryY=0.5;entryDx=0;entryDy=0;" parent="1" source="mSC2MxoGp9LhpinpzcPq-29" target="mSC2MxoGp9LhpinpzcPq-74" edge="1">
          <mxGeometry relative="1" as="geometry" />
        </mxCell>
        <mxCell id="mSC2MxoGp9LhpinpzcPq-85" style="rounded=0;orthogonalLoop=1;jettySize=auto;html=1;exitX=1;exitY=0.5;exitDx=0;exitDy=0;entryX=0;entryY=0.5;entryDx=0;entryDy=0;" parent="1" source="mSC2MxoGp9LhpinpzcPq-29" target="mSC2MxoGp9LhpinpzcPq-82" edge="1">
          <mxGeometry relative="1" as="geometry" />
        </mxCell>
        <mxCell id="hMp5thGQvHkygzWlozYT-8" style="rounded=0;orthogonalLoop=1;jettySize=auto;html=1;exitX=1;exitY=0.5;exitDx=0;exitDy=0;entryX=0;entryY=0.5;entryDx=0;entryDy=0;" parent="1" source="mSC2MxoGp9LhpinpzcPq-29" target="hMp5thGQvHkygzWlozYT-6" edge="1">
          <mxGeometry relative="1" as="geometry" />
        </mxCell>
        <mxCell id="mSC2MxoGp9LhpinpzcPq-29" value="Access to any domain admin" style="rounded=0;whiteSpace=wrap;html=1;fillColor=none;" parent="1" vertex="1">
          <mxGeometry x="1280" y="-370" width="130" height="80" as="geometry" />
        </mxCell>
        <mxCell id="mSC2MxoGp9LhpinpzcPq-31" value="&lt;div&gt;Access to a&lt;/div&gt;&lt;div&gt;domain admin account&lt;/div&gt;" style="text;html=1;align=center;verticalAlign=middle;resizable=0;points=[];autosize=1;strokeColor=none;fillColor=none;" parent="1" vertex="1">
          <mxGeometry x="1275" y="-935" width="140" height="40" as="geometry" />
        </mxCell>
        <mxCell id="mSC2MxoGp9LhpinpzcPq-32" value="" style="endArrow=none;html=1;rounded=0;entryX=0.492;entryY=0.946;entryDx=0;entryDy=0;entryPerimeter=0;" parent="1" target="mSC2MxoGp9LhpinpzcPq-31" edge="1">
          <mxGeometry width="50" height="50" relative="1" as="geometry">
            <mxPoint x="1344" y="-550" as="sourcePoint" />
            <mxPoint x="1344.6" y="-865" as="targetPoint" />
          </mxGeometry>
        </mxCell>
        <mxCell id="mSC2MxoGp9LhpinpzcPq-39" value="Discover IT documentation on fileshare" style="rounded=0;whiteSpace=wrap;html=1;fillColor=none;" parent="1" vertex="1">
          <mxGeometry x="860" y="-210" width="130" height="80" as="geometry" />
        </mxCell>
        <mxCell id="mSC2MxoGp9LhpinpzcPq-147" style="rounded=0;orthogonalLoop=1;jettySize=auto;html=1;exitX=1;exitY=0.5;exitDx=0;exitDy=0;entryX=0;entryY=0.5;entryDx=0;entryDy=0;" parent="1" source="mSC2MxoGp9LhpinpzcPq-67" target="mSC2MxoGp9LhpinpzcPq-39" edge="1">
          <mxGeometry relative="1" as="geometry" />
        </mxCell>
        <mxCell id="BWPq71a4Ht5vCcKjZ0YK-4" style="edgeStyle=orthogonalEdgeStyle;rounded=0;orthogonalLoop=1;jettySize=auto;html=1;exitX=0.5;exitY=1;exitDx=0;exitDy=0;entryX=0.5;entryY=0;entryDx=0;entryDy=0;dashed=1;" parent="1" source="mSC2MxoGp9LhpinpzcPq-67" target="BWPq71a4Ht5vCcKjZ0YK-2" edge="1">
          <mxGeometry relative="1" as="geometry" />
        </mxCell>
        <mxCell id="mSC2MxoGp9LhpinpzcPq-67" value="Additional discovery on the fileshare hosted on FS1 (by any enterprise domain user)" style="rounded=0;whiteSpace=wrap;html=1;fillColor=none;" parent="1" vertex="1">
          <mxGeometry x="650" y="-210" width="130" height="80" as="geometry" />
        </mxCell>
        <mxCell id="mSC2MxoGp9LhpinpzcPq-87" style="rounded=0;orthogonalLoop=1;jettySize=auto;html=1;exitX=1;exitY=0.5;exitDx=0;exitDy=0;entryX=0;entryY=0.5;entryDx=0;entryDy=0;" parent="1" source="mSC2MxoGp9LhpinpzcPq-74" target="mSC2MxoGp9LhpinpzcPq-86" edge="1">
          <mxGeometry relative="1" as="geometry" />
        </mxCell>
        <mxCell id="qUbnXrWqhDtKxV-uBRoz-9" style="rounded=0;orthogonalLoop=1;jettySize=auto;html=1;exitX=1;exitY=0.5;exitDx=0;exitDy=0;entryX=0;entryY=0.5;entryDx=0;entryDy=0;" parent="1" source="mSC2MxoGp9LhpinpzcPq-74" target="mSC2MxoGp9LhpinpzcPq-75" edge="1">
          <mxGeometry relative="1" as="geometry" />
        </mxCell>
        <mxCell id="mSC2MxoGp9LhpinpzcPq-74" value="DCSync" style="rounded=0;whiteSpace=wrap;html=1;fillColor=none;" parent="1" vertex="1">
          <mxGeometry x="1490" y="-450" width="130" height="80" as="geometry" />
        </mxCell>
        <mxCell id="MbkOXQBuggr2-LnzlaLT-41" style="edgeStyle=orthogonalEdgeStyle;rounded=0;orthogonalLoop=1;jettySize=auto;html=1;exitX=0.5;exitY=1;exitDx=0;exitDy=0;" parent="1" source="mSC2MxoGp9LhpinpzcPq-75" target="mSC2MxoGp9LhpinpzcPq-96" edge="1">
          <mxGeometry relative="1" as="geometry" />
        </mxCell>
        <mxCell id="mSC2MxoGp9LhpinpzcPq-75" value="Crack the hash of &quot;Jack&quot;" style="rounded=0;whiteSpace=wrap;html=1;fillColor=none;" parent="1" vertex="1">
          <mxGeometry x="1700" y="-290" width="130" height="80" as="geometry" />
        </mxCell>
        <mxCell id="qUbnXrWqhDtKxV-uBRoz-36" style="rounded=0;orthogonalLoop=1;jettySize=auto;html=1;exitX=1;exitY=0.5;exitDx=0;exitDy=0;entryX=0;entryY=0.5;entryDx=0;entryDy=0;" parent="1" source="mSC2MxoGp9LhpinpzcPq-82" target="mSC2MxoGp9LhpinpzcPq-96" edge="1">
          <mxGeometry relative="1" as="geometry" />
        </mxCell>
        <mxCell id="mSC2MxoGp9LhpinpzcPq-82" value="Reset the password of &quot;Jack&quot;" style="rounded=0;whiteSpace=wrap;html=1;fillColor=none;" parent="1" vertex="1">
          <mxGeometry x="1490" y="-290" width="130" height="80" as="geometry" />
        </mxCell>
        <mxCell id="qUbnXrWqhDtKxV-uBRoz-46" style="rounded=0;orthogonalLoop=1;jettySize=auto;html=1;exitX=1;exitY=0.5;exitDx=0;exitDy=0;entryX=0;entryY=0.5;entryDx=0;entryDy=0;" parent="1" source="mSC2MxoGp9LhpinpzcPq-86" target="mSC2MxoGp9LhpinpzcPq-101" edge="1">
          <mxGeometry relative="1" as="geometry" />
        </mxCell>
        <mxCell id="mSC2MxoGp9LhpinpzcPq-86" value="PTH of domain admin &quot;Backup&quot; to access the domain admin &quot;Backup&quot; in the OT domain" style="rounded=0;whiteSpace=wrap;html=1;fillColor=none;" parent="1" vertex="1">
          <mxGeometry x="1700" y="-450" width="130" height="80" as="geometry" />
        </mxCell>
        <mxCell id="mSC2MxoGp9LhpinpzcPq-88" value="" style="image;aspect=fixed;html=1;points=[];align=center;fontSize=12;image=img/lib/azure2/ai_machine_learning/Anomaly_Detector.svg;" parent="1" vertex="1">
          <mxGeometry x="760" y="-150" width="20" height="20" as="geometry" />
        </mxCell>
        <mxCell id="mSC2MxoGp9LhpinpzcPq-89" value="" style="endArrow=none;html=1;rounded=0;" parent="1" target="mSC2MxoGp9LhpinpzcPq-100" edge="1">
          <mxGeometry width="50" height="50" relative="1" as="geometry">
            <mxPoint x="1975" y="-630" as="sourcePoint" />
            <mxPoint x="1974" y="-863" as="targetPoint" />
          </mxGeometry>
        </mxCell>
        <mxCell id="qUbnXrWqhDtKxV-uBRoz-40" style="rounded=0;orthogonalLoop=1;jettySize=auto;html=1;exitX=1;exitY=0.5;exitDx=0;exitDy=0;entryX=0;entryY=0.5;entryDx=0;entryDy=0;" parent="1" source="mSC2MxoGp9LhpinpzcPq-96" target="mSC2MxoGp9LhpinpzcPq-102" edge="1">
          <mxGeometry relative="1" as="geometry" />
        </mxCell>
        <mxCell id="mSC2MxoGp9LhpinpzcPq-96" value="&quot;Jack&quot; has access to JUMP as mentioned in the account description" style="rounded=0;whiteSpace=wrap;html=1;fillColor=none;" parent="1" vertex="1">
          <mxGeometry x="1700" y="-130" width="130" height="80" as="geometry" />
        </mxCell>
        <mxCell id="mSC2MxoGp9LhpinpzcPq-100" value="Handover to OT" style="text;html=1;align=center;verticalAlign=middle;resizable=0;points=[];autosize=1;strokeColor=none;fillColor=none;" parent="1" vertex="1">
          <mxGeometry x="1920" y="-935" width="110" height="30" as="geometry" />
        </mxCell>
        <mxCell id="qUbnXrWqhDtKxV-uBRoz-45" style="rounded=0;orthogonalLoop=1;jettySize=auto;html=1;exitX=1;exitY=0.5;exitDx=0;exitDy=0;entryX=0;entryY=0.5;entryDx=0;entryDy=0;" parent="1" source="mSC2MxoGp9LhpinpzcPq-101" target="mSC2MxoGp9LhpinpzcPq-108" edge="1">
          <mxGeometry relative="1" as="geometry" />
        </mxCell>
        <mxCell id="mSC2MxoGp9LhpinpzcPq-101" value="Access JUMP as OT domain admin &quot;Backup&quot;" style="rounded=0;whiteSpace=wrap;html=1;fillColor=none;" parent="1" vertex="1">
          <mxGeometry x="1910" y="-290" width="130" height="80" as="geometry" />
        </mxCell>
        <mxCell id="qUbnXrWqhDtKxV-uBRoz-1" style="rounded=0;orthogonalLoop=1;jettySize=auto;html=1;exitX=1;exitY=0.5;exitDx=0;exitDy=0;entryX=0;entryY=0.5;entryDx=0;entryDy=0;" parent="1" source="mSC2MxoGp9LhpinpzcPq-102" target="mSC2MxoGp9LhpinpzcPq-188" edge="1">
          <mxGeometry relative="1" as="geometry" />
        </mxCell>
        <mxCell id="MbkOXQBuggr2-LnzlaLT-44" style="edgeStyle=orthogonalEdgeStyle;rounded=0;orthogonalLoop=1;jettySize=auto;html=1;exitX=1;exitY=0.5;exitDx=0;exitDy=0;entryX=0;entryY=0.5;entryDx=0;entryDy=0;" parent="1" source="mSC2MxoGp9LhpinpzcPq-102" target="MbkOXQBuggr2-LnzlaLT-43" edge="1">
          <mxGeometry relative="1" as="geometry" />
        </mxCell>
        <mxCell id="mSC2MxoGp9LhpinpzcPq-102" value="Access JUMP as enterprise domain user &quot;Jack&quot;" style="rounded=0;whiteSpace=wrap;html=1;fillColor=none;" parent="1" vertex="1">
          <mxGeometry x="1910" y="-130" width="130" height="80" as="geometry" />
        </mxCell>
        <mxCell id="mSC2MxoGp9LhpinpzcPq-153" style="rounded=0;orthogonalLoop=1;jettySize=auto;html=1;exitX=1;exitY=0.5;exitDx=0;exitDy=0;entryX=0;entryY=0.5;entryDx=0;entryDy=0;" parent="1" source="mSC2MxoGp9LhpinpzcPq-108" target="mSC2MxoGp9LhpinpzcPq-141" edge="1">
          <mxGeometry relative="1" as="geometry" />
        </mxCell>
        <mxCell id="mSC2MxoGp9LhpinpzcPq-108" value="Discover KeePass process active in the user context of &quot;Bob&quot;, exploit CVE-2023-32784" style="rounded=0;whiteSpace=wrap;html=1;fillColor=none;" parent="1" vertex="1">
          <mxGeometry x="2120" y="-450" width="130" height="80" as="geometry" />
        </mxCell>
        <mxCell id="A97Dwx9yJ_ya-iUQLe3B-19" style="edgeStyle=orthogonalEdgeStyle;rounded=0;orthogonalLoop=1;jettySize=auto;html=1;exitX=1;exitY=0.5;exitDx=0;exitDy=0;entryX=0;entryY=0.5;entryDx=0;entryDy=0;" parent="1" source="mSC2MxoGp9LhpinpzcPq-115" target="A97Dwx9yJ_ya-iUQLe3B-3" edge="1">
          <mxGeometry relative="1" as="geometry" />
        </mxCell>
        <mxCell id="A97Dwx9yJ_ya-iUQLe3B-22" style="rounded=0;orthogonalLoop=1;jettySize=auto;html=1;exitX=1;exitY=0.5;exitDx=0;exitDy=0;entryX=0;entryY=0.5;entryDx=0;entryDy=0;" parent="1" source="mSC2MxoGp9LhpinpzcPq-115" target="mSC2MxoGp9LhpinpzcPq-122" edge="1">
          <mxGeometry relative="1" as="geometry" />
        </mxCell>
        <mxCell id="mSC2MxoGp9LhpinpzcPq-115" value="Leverage Grafana web interface credentials for accessing HIST via SSH" style="rounded=0;whiteSpace=wrap;html=1;fillColor=none;" parent="1" vertex="1">
          <mxGeometry x="2120" y="-130" width="130" height="80" as="geometry" />
        </mxCell>
        <mxCell id="M34mv4KPkFiFY2YMgsvM-11" style="edgeStyle=orthogonalEdgeStyle;rounded=0;orthogonalLoop=1;jettySize=auto;html=1;exitX=1;exitY=0.5;exitDx=0;exitDy=0;entryX=0;entryY=0.5;entryDx=0;entryDy=0;" parent="1" source="mSC2MxoGp9LhpinpzcPq-122" target="M34mv4KPkFiFY2YMgsvM-9" edge="1">
          <mxGeometry relative="1" as="geometry" />
        </mxCell>
        <mxCell id="mSC2MxoGp9LhpinpzcPq-122" value="Privilege escalation via vi SUID binary" style="rounded=0;whiteSpace=wrap;html=1;fillColor=none;" parent="1" vertex="1">
          <mxGeometry x="2330" y="30" width="130" height="80" as="geometry" />
        </mxCell>
        <mxCell id="mSC2MxoGp9LhpinpzcPq-129" value="... Final IT/OT goal" style="verticalLabelPosition=middle;align=left;labelBackgroundColor=#ffffff;verticalAlign=middle;strokeWidth=2;strokeColor=#4D9900;shadow=0;dashed=0;shape=mxgraph.ios7.icons.flag;labelPosition=right;html=1;" parent="1" vertex="1">
          <mxGeometry x="60" y="-1030" width="20" height="20" as="geometry" />
        </mxCell>
        <mxCell id="A97Dwx9yJ_ya-iUQLe3B-26" style="edgeStyle=orthogonalEdgeStyle;rounded=0;orthogonalLoop=1;jettySize=auto;html=1;exitX=1;exitY=0.5;exitDx=0;exitDy=0;" parent="1" source="mSC2MxoGp9LhpinpzcPq-141" target="M34mv4KPkFiFY2YMgsvM-12" edge="1">
          <mxGeometry relative="1" as="geometry" />
        </mxCell>
        <mxCell id="mSC2MxoGp9LhpinpzcPq-141" value="Discover credentials for local Administrator on ENG1 in the KeePass database" style="rounded=0;whiteSpace=wrap;html=1;fillColor=none;" parent="1" vertex="1">
          <mxGeometry x="2330" y="-450" width="130" height="80" as="geometry" />
        </mxCell>
        <mxCell id="mSC2MxoGp9LhpinpzcPq-170" value="Exploit CVE-2023-33472 for authenticated RCE on SCADA server" style="rounded=0;whiteSpace=wrap;html=1;fillColor=none;" parent="1" vertex="1">
          <mxGeometry x="2750" y="30" width="130" height="80" as="geometry" />
        </mxCell>
        <mxCell id="qUbnXrWqhDtKxV-uBRoz-26" style="rounded=0;orthogonalLoop=1;jettySize=auto;html=1;exitX=1;exitY=0.5;exitDx=0;exitDy=0;entryX=0;entryY=0.5;entryDx=0;entryDy=0;" parent="1" source="mSC2MxoGp9LhpinpzcPq-188" target="qUbnXrWqhDtKxV-uBRoz-3" edge="1">
          <mxGeometry relative="1" as="geometry" />
        </mxCell>
        <mxCell id="MbkOXQBuggr2-LnzlaLT-27" style="edgeStyle=orthogonalEdgeStyle;rounded=0;orthogonalLoop=1;jettySize=auto;html=1;exitX=0.5;exitY=0;exitDx=0;exitDy=0;entryX=0.5;entryY=1;entryDx=0;entryDy=0;" parent="1" source="mSC2MxoGp9LhpinpzcPq-188" target="mSC2MxoGp9LhpinpzcPq-108" edge="1">
          <mxGeometry relative="1" as="geometry" />
        </mxCell>
        <mxCell id="mSC2MxoGp9LhpinpzcPq-188" value="Priv esc via scheduled task" style="rounded=0;whiteSpace=wrap;html=1;fillColor=none;" parent="1" vertex="1">
          <mxGeometry x="2120" y="-290" width="130" height="80" as="geometry" />
        </mxCell>
        <mxCell id="mSC2MxoGp9LhpinpzcPq-203" value="" style="image;aspect=fixed;html=1;points=[];align=center;fontSize=12;image=img/lib/azure2/ai_machine_learning/Anomaly_Detector.svg;" parent="1" vertex="1">
          <mxGeometry x="1180" y="-470" width="20" height="20" as="geometry" />
        </mxCell>
        <mxCell id="A97Dwx9yJ_ya-iUQLe3B-2" style="edgeStyle=orthogonalEdgeStyle;rounded=0;orthogonalLoop=1;jettySize=auto;html=1;exitX=0.5;exitY=0;exitDx=0;exitDy=0;entryX=0.75;entryY=1;entryDx=0;entryDy=0;dashed=1;" parent="1" source="qUbnXrWqhDtKxV-uBRoz-3" target="MbkOXQBuggr2-LnzlaLT-4" edge="1">
          <mxGeometry relative="1" as="geometry">
            <Array as="points">
              <mxPoint x="2395" y="-340" />
              <mxPoint x="2290" y="-340" />
              <mxPoint x="2290" y="-490" />
              <mxPoint x="2008" y="-490" />
            </Array>
          </mxGeometry>
        </mxCell>
        <mxCell id="qUbnXrWqhDtKxV-uBRoz-3" value="Extract and crack cached hash of &quot;BoB&quot;" style="rounded=0;whiteSpace=wrap;html=1;fillColor=none;" parent="1" vertex="1">
          <mxGeometry x="2330" y="-290" width="130" height="80" as="geometry" />
        </mxCell>
        <mxCell id="M34mv4KPkFiFY2YMgsvM-1" value="" style="image;aspect=fixed;html=1;points=[];align=center;fontSize=12;image=img/lib/azure2/ai_machine_learning/Anomaly_Detector.svg;" parent="1" vertex="1">
          <mxGeometry x="970" y="-310" width="20" height="20" as="geometry" />
        </mxCell>
        <mxCell id="M34mv4KPkFiFY2YMgsvM-2" value="" style="image;aspect=fixed;html=1;points=[];align=center;fontSize=12;image=img/lib/azure2/ai_machine_learning/Anomaly_Detector.svg;" parent="1" vertex="1">
          <mxGeometry x="1600" y="-230" width="20" height="20" as="geometry" />
        </mxCell>
        <mxCell id="M34mv4KPkFiFY2YMgsvM-3" value="" style="image;aspect=fixed;html=1;points=[];align=center;fontSize=12;image=img/lib/azure2/ai_machine_learning/Anomaly_Detector.svg;" parent="1" vertex="1">
          <mxGeometry x="1600" y="-390" width="20" height="20" as="geometry" />
        </mxCell>
        <mxCell id="MbkOXQBuggr2-LnzlaLT-47" style="edgeStyle=orthogonalEdgeStyle;rounded=0;orthogonalLoop=1;jettySize=auto;html=1;exitX=1;exitY=0.5;exitDx=0;exitDy=0;" parent="1" source="M34mv4KPkFiFY2YMgsvM-9" target="MbkOXQBuggr2-LnzlaLT-46" edge="1">
          <mxGeometry relative="1" as="geometry" />
        </mxCell>
        <mxCell id="M34mv4KPkFiFY2YMgsvM-9" value="SCADA can be accessed from HIST only (FW)" style="rounded=0;whiteSpace=wrap;html=1;fillColor=none;" parent="1" vertex="1">
          <mxGeometry x="2540" y="30" width="130" height="80" as="geometry" />
        </mxCell>
        <mxCell id="A97Dwx9yJ_ya-iUQLe3B-35" style="edgeStyle=orthogonalEdgeStyle;rounded=0;orthogonalLoop=1;jettySize=auto;html=1;exitX=1;exitY=0.5;exitDx=0;exitDy=0;entryX=0.5;entryY=0;entryDx=0;entryDy=0;" parent="1" source="M34mv4KPkFiFY2YMgsvM-12" target="A97Dwx9yJ_ya-iUQLe3B-27" edge="1">
          <mxGeometry relative="1" as="geometry">
            <Array as="points">
              <mxPoint x="2680" y="-410" />
            </Array>
          </mxGeometry>
        </mxCell>
        <mxCell id="M34mv4KPkFiFY2YMgsvM-12" value="Access ENG1" style="rounded=0;whiteSpace=wrap;html=1;fillColor=none;" parent="1" vertex="1">
          <mxGeometry x="2540" y="-450" width="130" height="80" as="geometry" />
        </mxCell>
        <mxCell id="hMp5thGQvHkygzWlozYT-4" style="rounded=0;orthogonalLoop=1;jettySize=auto;html=1;exitX=1;exitY=0.5;exitDx=0;exitDy=0;entryX=0;entryY=0.5;entryDx=0;entryDy=0;" parent="1" source="hMp5thGQvHkygzWlozYT-1" target="hMp5thGQvHkygzWlozYT-2" edge="1">
          <mxGeometry relative="1" as="geometry" />
        </mxCell>
        <mxCell id="hMp5thGQvHkygzWlozYT-1" value="Forge a golden trust ticket" style="rounded=0;whiteSpace=wrap;html=1;fillColor=none;" parent="1" vertex="1">
          <mxGeometry x="1700" y="-610" width="130" height="80" as="geometry" />
        </mxCell>
        <mxCell id="hMp5thGQvHkygzWlozYT-5" style="rounded=0;orthogonalLoop=1;jettySize=auto;html=1;exitX=1;exitY=0.5;exitDx=0;exitDy=0;entryX=0;entryY=0.5;entryDx=0;entryDy=0;" parent="1" source="hMp5thGQvHkygzWlozYT-2" target="mSC2MxoGp9LhpinpzcPq-108" edge="1">
          <mxGeometry relative="1" as="geometry" />
        </mxCell>
        <mxCell id="MbkOXQBuggr2-LnzlaLT-32" style="edgeStyle=orthogonalEdgeStyle;rounded=0;orthogonalLoop=1;jettySize=auto;html=1;exitX=0.5;exitY=0;exitDx=0;exitDy=0;entryX=0.5;entryY=1;entryDx=0;entryDy=0;dashed=1;" parent="1" source="hMp5thGQvHkygzWlozYT-2" edge="1">
          <mxGeometry relative="1" as="geometry">
            <mxPoint x="1975" y="-530" as="targetPoint" />
          </mxGeometry>
        </mxCell>
        <mxCell id="hMp5thGQvHkygzWlozYT-2" value="Access JUMP as any OT domain admin" style="rounded=0;whiteSpace=wrap;html=1;fillColor=none;" parent="1" vertex="1">
          <mxGeometry x="1910" y="-450" width="130" height="80" as="geometry" />
        </mxCell>
        <mxCell id="hMp5thGQvHkygzWlozYT-10" style="rounded=0;orthogonalLoop=1;jettySize=auto;html=1;exitX=1;exitY=0.5;exitDx=0;exitDy=0;entryX=0;entryY=0.5;entryDx=0;entryDy=0;" parent="1" source="hMp5thGQvHkygzWlozYT-6" target="hMp5thGQvHkygzWlozYT-1" edge="1">
          <mxGeometry relative="1" as="geometry" />
        </mxCell>
        <mxCell id="hMp5thGQvHkygzWlozYT-6" value="Run Mimikatz and dump the trust key" style="rounded=0;whiteSpace=wrap;html=1;fillColor=none;" parent="1" vertex="1">
          <mxGeometry x="1490" y="-610" width="130" height="80" as="geometry" />
        </mxCell>
        <mxCell id="hMp5thGQvHkygzWlozYT-7" value="" style="image;aspect=fixed;html=1;points=[];align=center;fontSize=12;image=img/lib/azure2/ai_machine_learning/Anomaly_Detector.svg;" parent="1" vertex="1">
          <mxGeometry x="1600" y="-550" width="20" height="20" as="geometry" />
        </mxCell>
        <mxCell id="hMp5thGQvHkygzWlozYT-12" value="" style="verticalLabelPosition=middle;align=left;labelBackgroundColor=#ffffff;verticalAlign=middle;strokeWidth=2;strokeColor=#4D9900;shadow=0;dashed=0;shape=mxgraph.ios7.icons.flag;labelPosition=right;html=1;" parent="1" vertex="1">
          <mxGeometry x="2610" y="-320" width="30" height="30" as="geometry" />
        </mxCell>
        <mxCell id="hMp5thGQvHkygzWlozYT-15" value="Add a backdoor domain admin with a specific name" style="rounded=0;whiteSpace=wrap;html=1;fillColor=#a20025;fontColor=#ffffff;strokeColor=#6F0000;" parent="1" vertex="1">
          <mxGeometry x="1490" y="-770" width="130" height="80" as="geometry" />
        </mxCell>
        <mxCell id="hMp5thGQvHkygzWlozYT-16" value="" style="verticalLabelPosition=middle;align=left;labelBackgroundColor=#ffffff;verticalAlign=middle;strokeWidth=2;strokeColor=#4D9900;shadow=0;dashed=0;shape=mxgraph.ios7.icons.flag;labelPosition=right;html=1;" parent="1" vertex="1">
          <mxGeometry x="1550" y="-800" width="30" height="30" as="geometry" />
        </mxCell>
        <mxCell id="BWPq71a4Ht5vCcKjZ0YK-7" style="edgeStyle=orthogonalEdgeStyle;rounded=0;orthogonalLoop=1;jettySize=auto;html=1;exitX=1;exitY=0.5;exitDx=0;exitDy=0;" parent="1" source="BWPq71a4Ht5vCcKjZ0YK-2" target="BWPq71a4Ht5vCcKjZ0YK-5" edge="1">
          <mxGeometry relative="1" as="geometry" />
        </mxCell>
        <mxCell id="BWPq71a4Ht5vCcKjZ0YK-2" value="Additional discovery on the enterprise client" style="rounded=0;whiteSpace=wrap;html=1;fillColor=none;" parent="1" vertex="1">
          <mxGeometry x="650" y="-50" width="130" height="80" as="geometry" />
        </mxCell>
        <mxCell id="BWPq71a4Ht5vCcKjZ0YK-3" value="" style="image;aspect=fixed;html=1;points=[];align=center;fontSize=12;image=img/lib/azure2/ai_machine_learning/Anomaly_Detector.svg;" parent="1" vertex="1">
          <mxGeometry x="760" y="10" width="20" height="20" as="geometry" />
        </mxCell>
        <mxCell id="A97Dwx9yJ_ya-iUQLe3B-10" style="edgeStyle=orthogonalEdgeStyle;rounded=0;orthogonalLoop=1;jettySize=auto;html=1;exitX=1;exitY=0.5;exitDx=0;exitDy=0;entryX=0.5;entryY=1;entryDx=0;entryDy=0;" parent="1" source="BWPq71a4Ht5vCcKjZ0YK-5" target="MbkOXQBuggr2-LnzlaLT-43" edge="1">
          <mxGeometry relative="1" as="geometry" />
        </mxCell>
        <mxCell id="BWPq71a4Ht5vCcKjZ0YK-5" value="Discover Grafana credentials in the credential manager of &quot;Nina&quot;" style="rounded=0;whiteSpace=wrap;html=1;fillColor=none;" parent="1" vertex="1">
          <mxGeometry x="860" y="-50" width="130" height="80" as="geometry" />
        </mxCell>
        <mxCell id="MbkOXQBuggr2-LnzlaLT-48" style="edgeStyle=orthogonalEdgeStyle;rounded=0;orthogonalLoop=1;jettySize=auto;html=1;exitX=1;exitY=0.5;exitDx=0;exitDy=0;entryX=0.5;entryY=0;entryDx=0;entryDy=0;" parent="1" source="MbkOXQBuggr2-LnzlaLT-2" target="MbkOXQBuggr2-LnzlaLT-46" edge="1">
          <mxGeometry relative="1" as="geometry" />
        </mxCell>
        <mxCell id="MbkOXQBuggr2-LnzlaLT-2" value="Discover SCADA LTS credentials" style="rounded=0;whiteSpace=wrap;html=1;fillColor=none;" parent="1" vertex="1">
          <mxGeometry x="2120" y="-770" width="130" height="80" as="geometry" />
        </mxCell>
        <mxCell id="MbkOXQBuggr2-LnzlaLT-3" style="rounded=0;orthogonalLoop=1;jettySize=auto;html=1;exitX=1;exitY=0.5;exitDx=0;exitDy=0;entryX=0;entryY=0.5;entryDx=0;entryDy=0;" parent="1" source="MbkOXQBuggr2-LnzlaLT-4" target="MbkOXQBuggr2-LnzlaLT-2" edge="1">
          <mxGeometry relative="1" as="geometry" />
        </mxCell>
        <mxCell id="MbkOXQBuggr2-LnzlaLT-4" value="Additional discovery on the fileshare hosted on OTDC1 (by any OT domain user)" style="rounded=0;whiteSpace=wrap;html=1;fillColor=none;" parent="1" vertex="1">
          <mxGeometry x="1910" y="-610" width="130" height="80" as="geometry" />
        </mxCell>
        <mxCell id="MbkOXQBuggr2-LnzlaLT-11" style="edgeStyle=orthogonalEdgeStyle;rounded=0;orthogonalLoop=1;jettySize=auto;html=1;exitX=1;exitY=0.5;exitDx=0;exitDy=0;" parent="1" target="MbkOXQBuggr2-LnzlaLT-14" edge="1">
          <mxGeometry relative="1" as="geometry">
            <mxPoint x="2040" y="-570" as="sourcePoint" />
          </mxGeometry>
        </mxCell>
        <mxCell id="MbkOXQBuggr2-LnzlaLT-13" value="" style="image;aspect=fixed;html=1;points=[];align=center;fontSize=12;image=img/lib/azure2/ai_machine_learning/Anomaly_Detector.svg;" parent="1" vertex="1">
          <mxGeometry x="2440" y="-230" width="20" height="20" as="geometry" />
        </mxCell>
        <mxCell id="A97Dwx9yJ_ya-iUQLe3B-29" style="edgeStyle=orthogonalEdgeStyle;rounded=0;orthogonalLoop=1;jettySize=auto;html=1;exitX=1;exitY=0.5;exitDx=0;exitDy=0;entryX=1;entryY=0.25;entryDx=0;entryDy=0;" parent="1" source="MbkOXQBuggr2-LnzlaLT-14" target="A97Dwx9yJ_ya-iUQLe3B-27" edge="1">
          <mxGeometry relative="1" as="geometry" />
        </mxCell>
        <mxCell id="A97Dwx9yJ_ya-iUQLe3B-31" style="edgeStyle=orthogonalEdgeStyle;rounded=0;orthogonalLoop=1;jettySize=auto;html=1;exitX=1;exitY=0.5;exitDx=0;exitDy=0;entryX=1;entryY=0.5;entryDx=0;entryDy=0;" parent="1" source="MbkOXQBuggr2-LnzlaLT-14" target="A97Dwx9yJ_ya-iUQLe3B-30" edge="1">
          <mxGeometry relative="1" as="geometry" />
        </mxCell>
        <mxCell id="MbkOXQBuggr2-LnzlaLT-14" value="Discover PLC documentation" style="rounded=0;whiteSpace=wrap;html=1;fillColor=none;" parent="1" vertex="1">
          <mxGeometry x="2120" y="-610" width="130" height="80" as="geometry" />
        </mxCell>
        <mxCell id="MbkOXQBuggr2-LnzlaLT-43" value="&amp;amp;&amp;amp;" style="rounded=0;whiteSpace=wrap;html=1;" parent="1" vertex="1">
          <mxGeometry x="2100" y="-100" width="20" height="20" as="geometry" />
        </mxCell>
        <mxCell id="MbkOXQBuggr2-LnzlaLT-46" value="&amp;amp;&amp;amp;" style="rounded=0;whiteSpace=wrap;html=1;" parent="1" vertex="1">
          <mxGeometry x="2730" y="60" width="20" height="20" as="geometry" />
        </mxCell>
        <mxCell id="MbkOXQBuggr2-LnzlaLT-53" value="&amp;amp;&amp;amp;" style="rounded=0;whiteSpace=wrap;html=1;" parent="1" vertex="1">
          <mxGeometry x="60" y="-1000" width="20" height="20" as="geometry" />
        </mxCell>
        <mxCell id="MbkOXQBuggr2-LnzlaLT-55" value="... All incoming events must be true to proceed" style="text;html=1;align=center;verticalAlign=middle;whiteSpace=wrap;rounded=0;" parent="1" vertex="1">
          <mxGeometry x="64" y="-1005" width="283" height="30" as="geometry" />
        </mxCell>
        <mxCell id="A97Dwx9yJ_ya-iUQLe3B-1" value="" style="image;aspect=fixed;html=1;points=[];align=center;fontSize=12;image=img/lib/azure2/ai_machine_learning/Anomaly_Detector.svg;" parent="1" vertex="1">
          <mxGeometry x="2230" y="-390" width="20" height="20" as="geometry" />
        </mxCell>
        <mxCell id="A97Dwx9yJ_ya-iUQLe3B-12" style="edgeStyle=orthogonalEdgeStyle;rounded=0;orthogonalLoop=1;jettySize=auto;html=1;exitX=1;exitY=0.5;exitDx=0;exitDy=0;" parent="1" source="A97Dwx9yJ_ya-iUQLe3B-3" target="A97Dwx9yJ_ya-iUQLe3B-11" edge="1">
          <mxGeometry relative="1" as="geometry" />
        </mxCell>
        <mxCell id="A97Dwx9yJ_ya-iUQLe3B-3" value="PLC can be accessed from HIST (FW)" style="rounded=0;whiteSpace=wrap;html=1;fillColor=none;" parent="1" vertex="1">
          <mxGeometry x="2330" y="-130" width="130" height="80" as="geometry" />
        </mxCell>
        <mxCell id="A97Dwx9yJ_ya-iUQLe3B-34" style="edgeStyle=orthogonalEdgeStyle;rounded=0;orthogonalLoop=1;jettySize=auto;html=1;exitX=1;exitY=0.5;exitDx=0;exitDy=0;entryX=0.5;entryY=1;entryDx=0;entryDy=0;" parent="1" source="A97Dwx9yJ_ya-iUQLe3B-11" target="A97Dwx9yJ_ya-iUQLe3B-30" edge="1">
          <mxGeometry relative="1" as="geometry">
            <Array as="points">
              <mxPoint x="2680" y="-90" />
            </Array>
          </mxGeometry>
        </mxCell>
        <mxCell id="A97Dwx9yJ_ya-iUQLe3B-11" value="Enable debug modus" style="rounded=0;whiteSpace=wrap;html=1;fillColor=none;" parent="1" vertex="1">
          <mxGeometry x="2540" y="-130" width="130" height="80" as="geometry" />
        </mxCell>
        <mxCell id="A97Dwx9yJ_ya-iUQLe3B-13" value="Manipulate PLC" style="rounded=0;whiteSpace=wrap;html=1;fillColor=none;" parent="1" vertex="1">
          <mxGeometry x="2540" y="-290" width="130" height="80" as="geometry" />
        </mxCell>
        <mxCell id="A97Dwx9yJ_ya-iUQLe3B-27" value="&amp;amp;&amp;amp;" style="rounded=0;whiteSpace=wrap;html=1;" parent="1" vertex="1">
          <mxGeometry x="2670" y="-290" width="20" height="20" as="geometry" />
        </mxCell>
        <mxCell id="A97Dwx9yJ_ya-iUQLe3B-30" value="&amp;amp;&amp;amp;" style="rounded=0;whiteSpace=wrap;html=1;" parent="1" vertex="1">
          <mxGeometry x="2670" y="-230" width="20" height="20" as="geometry" />
        </mxCell>
        <mxCell id="7AaZZMU8ZGBR-gHmgHZu-3" value="" style="shape=flexArrow;endArrow=classic;html=1;rounded=0;exitX=1;exitY=0.5;exitDx=0;exitDy=0;entryX=0;entryY=0.5;entryDx=0;entryDy=0;fillColor=#a20025;strokeColor=#6F0000;" parent="1" source="D84TmE_rMbiOWt82x0Ym-61" target="Z1Lz8Go7HBzAx8jmQ4Jy-1" edge="1">
          <mxGeometry width="50" height="50" relative="1" as="geometry">
            <mxPoint x="580" y="-460" as="sourcePoint" />
            <mxPoint x="630" y="-510" as="targetPoint" />
          </mxGeometry>
        </mxCell>
        <mxCell id="7AaZZMU8ZGBR-gHmgHZu-5" value="" style="shape=flexArrow;endArrow=classic;html=1;rounded=0;exitX=1;exitY=0.5;exitDx=0;exitDy=0;entryX=0;entryY=0.5;entryDx=0;entryDy=0;fillColor=#a20025;strokeColor=#6F0000;" parent="1" source="Z1Lz8Go7HBzAx8jmQ4Jy-1" target="mSC2MxoGp9LhpinpzcPq-1" edge="1">
          <mxGeometry width="50" height="50" relative="1" as="geometry">
            <mxPoint x="580" y="-460" as="sourcePoint" />
            <mxPoint x="630" y="-510" as="targetPoint" />
          </mxGeometry>
        </mxCell>
        <mxCell id="7AaZZMU8ZGBR-gHmgHZu-6" value="" style="shape=flexArrow;endArrow=classic;html=1;rounded=0;exitX=1;exitY=0.5;exitDx=0;exitDy=0;entryX=0;entryY=0.5;entryDx=0;entryDy=0;fillColor=#a20025;strokeColor=#6F0000;" parent="1" source="mSC2MxoGp9LhpinpzcPq-1" target="mSC2MxoGp9LhpinpzcPq-8" edge="1">
          <mxGeometry width="50" height="50" relative="1" as="geometry">
            <mxPoint x="580" y="-460" as="sourcePoint" />
            <mxPoint x="630" y="-510" as="targetPoint" />
          </mxGeometry>
        </mxCell>
        <mxCell id="7AaZZMU8ZGBR-gHmgHZu-7" value="" style="shape=flexArrow;endArrow=classic;html=1;rounded=0;exitX=1;exitY=0.5;exitDx=0;exitDy=0;entryX=0;entryY=0.5;entryDx=0;entryDy=0;fillColor=#a20025;strokeColor=#6F0000;" parent="1" source="mSC2MxoGp9LhpinpzcPq-8" target="Z1Lz8Go7HBzAx8jmQ4Jy-42" edge="1">
          <mxGeometry width="50" height="50" relative="1" as="geometry">
            <mxPoint x="580" y="-460" as="sourcePoint" />
            <mxPoint x="630" y="-510" as="targetPoint" />
          </mxGeometry>
        </mxCell>
        <mxCell id="7AaZZMU8ZGBR-gHmgHZu-8" value="" style="shape=flexArrow;endArrow=classic;html=1;rounded=0;exitX=1;exitY=0.5;exitDx=0;exitDy=0;entryX=0;entryY=0.5;entryDx=0;entryDy=0;fillColor=#a20025;strokeColor=#6F0000;" parent="1" source="Z1Lz8Go7HBzAx8jmQ4Jy-42" target="hMp5thGQvHkygzWlozYT-15" edge="1">
          <mxGeometry width="50" height="50" relative="1" as="geometry">
            <mxPoint x="1270" y="-460" as="sourcePoint" />
            <mxPoint x="1320" y="-510" as="targetPoint" />
          </mxGeometry>
        </mxCell>
        <mxCell id="mSC2MxoGp9LhpinpzcPq-8" value="&lt;div&gt;Access to low priv domain user account&lt;/div&gt;&lt;div&gt;&quot;Martin&quot;&lt;br&gt;&lt;/div&gt;" style="rounded=0;whiteSpace=wrap;html=1;fillColor=#a20025;fontColor=#ffffff;strokeColor=#6F0000;" parent="1" vertex="1">
          <mxGeometry x="650" y="-370" width="130" height="80" as="geometry" />
        </mxCell>
        <mxCell id="Z1Lz8Go7HBzAx8jmQ4Jy-1" value="Company website contains usernames" style="rounded=0;whiteSpace=wrap;html=1;fillColor=#a20025;fontColor=#ffffff;strokeColor=#6F0000;" parent="1" vertex="1">
          <mxGeometry x="230" y="-530" width="130" height="80" as="geometry" />
        </mxCell>
        <mxCell id="7AaZZMU8ZGBR-gHmgHZu-9" value="&lt;div&gt;Detection&lt;/div&gt;&lt;div&gt;Wazuh: Low&lt;/div&gt;EDR Vendor: Info" style="rounded=0;whiteSpace=wrap;html=1;fillColor=#60a917;fontColor=#ffffff;strokeColor=#2D7600;" parent="1" vertex="1">
          <mxGeometry x="860" y="-610" width="130" height="60" as="geometry" />
        </mxCell>
        <mxCell id="7AaZZMU8ZGBR-gHmgHZu-12" value="&lt;div&gt;Detection&lt;/div&gt;Wazuh:&lt;div&gt;Low&lt;/div&gt;" style="rounded=0;whiteSpace=wrap;html=1;fillColor=#60a917;fontColor=#ffffff;strokeColor=#2D7600;" parent="1" vertex="1">
          <mxGeometry x="650" y="-290" width="130" height="60" as="geometry" />
        </mxCell>
        <mxCell id="7AaZZMU8ZGBR-gHmgHZu-13" value="&lt;div&gt;Detection&lt;/div&gt;Wazuh:&amp;nbsp;&lt;span style=&quot;background-color: transparent; color: light-dark(rgb(255, 255, 255), rgb(18, 18, 18));&quot;&gt;Medium&lt;/span&gt;&lt;div&gt;&lt;span style=&quot;background-color: transparent; color: light-dark(rgb(255, 255, 255), rgb(18, 18, 18));&quot;&gt;EDR Vendor: Info&lt;/span&gt;&lt;/div&gt;" style="rounded=0;whiteSpace=wrap;html=1;fillColor=#60a917;fontColor=#ffffff;strokeColor=#2D7600;" parent="1" vertex="1">
          <mxGeometry x="1490" y="-690" width="130" height="60" as="geometry" />
        </mxCell>
      </root>
    </mxGraphModel>
  </diagram>
</mxfile>
